{"title":"Farscape Season 3 DVD 1 (RETAIL) RHoek 2Lions-Team","uid":5922032,"size":4675842635,"categoryP":"video","categoryS":"tv_shows","magnet":"?xt=urn:btih:d4e677d3096ac4f60a39f2b826344e864c3651f8&amp;dn=Farscape+Season+3+DVD+1+%28RETAIL%29+RHoek+2Lions-Team&amp;tr=udp%3A%2F%2Ftracker.openbittorrent.com%3A80&amp;tr=udp%3A%2F%2Fopen.demonii.com%3A1337&amp;tr=udp%3A%2F%2Ftracker.coppersurfer.tk%3A6969&amp;tr=udp%3A%2F%2Fexodus.desync.com%3A6969","seeders":0,"leechers":1,"uploader":"RHoek-2lions","files":-1,"time":1288457270,"description":"SORRY, NO ENGLISH THIS TIME. This serie is in English, but the menu isn't.\n\n~~~~~~~~~~~~~~~~~~~~~~~~~~~~~~~~~~~~~~~~~~~~~~~~~~~~~~~~~\nVERHAALLIJN:\nÃ‚Â¯Ã‚Â¯Ã‚Â¯Ã‚Â¯Ã‚Â¯Ã‚Â¯Ã‚Â¯Ã‚Â¯Ã‚Â¯Ã‚Â¯Ã‚Â¯Ã‚Â¯\nIn de serie raakt de Amerikaanse astronaut John Crichton per abuis in een wormgat verzeild tijdens een experimentele ruimtevlucht. Eenmaal uit het wormgat blijkt hij zich in een compleet nieuw heelal te bevinden. Voordat hij zich hierover ook maar kan verbazen belandt hij midden in een ruimtegevecht, waarin hij per ongeluk een schip ramt, dat vervolgens explodeert. Hij wordt aan boord genomen van een reusachtig levend ruimteschip dat bemand is door een drietal buitenaardse wezens, gevangenen, zo blijkt, die net bezig zijn te ontsnappen uit handen van de Peacekeepers, een mensachtig ras van brute militairen.\n\n~~~~~~~~~~~~~~~~~~~~~~~~~~~~~~~~~~~~~~~~~~~~~~~~~~~~~~~~~\n- Titel: Farscape Seizoen 3 DVD 1 (RETAIL) RHoek 2Lions-Team\n- Grootte: 4,35 GB\n- Categorie : Beeld\n- Formaat : DVD5 \n- Bron : Retail\n- Genre : Science Fiction\n- Beeld : 4:3\n- Audio : 5.1DD Engels\n- Menu : Ja Custom (met dank aan kessy en machoclown)\n- Ondertitels : Custom Nederlands (met dank aan DaClownz)\n- Genre : Science-Fiction | Avontuur \n\nMet dank aan Pioen voor het verkrijgen van deze serie &amp; Angelspots voor het spotten!\n\nIMDb: http://www.imdb.com/title/tt0187636/ (8.7 uit 10 !!!)\nOfficiÃƒÂ«le website: http://www.farscape.com\n\n~~~~~~~~~~~~~~~~~~~~~~~~~~~~~~~~~~~~~~~~~~~~~~~~~~~~~~~~~\n\nVIDEO &amp; AUDIO INFORMATIE\nÃ‚Â¯Ã‚Â¯Ã‚Â¯Ã‚Â¯Ã‚Â¯Ã‚Â¯Ã‚Â¯Ã‚Â¯Ã‚Â¯Ã‚Â¯Ã‚Â¯Ã‚Â¯Ã‚Â¯Ã‚Â¯Ã‚Â¯Ã‚Â¯Ã‚Â¯Ã‚Â¯Ã‚Â¯Ã‚Â¯Ã‚Â¯Ã‚Â¯Ã‚Â¯Ã‚Â¯Ã‚Â¯Ã‚Â¯Ã‚Â¯Ã‚Â¯Ã‚Â¯Ã‚Â¯\nVideo\nID                               : 224 (0xE0)\nFormat                           : MPEG Video\nFormat version                   : Version 2\nFormat profile                   : Main@Main\nFormat settings, BVOP            : Yes\nFormat settings, Matrix          : Default\nDuration                         : 40mn 55s\nBit rate mode                    : Variable\nBit rate                         : 2 981 Kbps\nNominal bit rate                 : 9 000 Kbps\nWidth                            : 720 pixels\nHeight                           : 576 pixels\nDisplay aspect ratio             : 4:3\nFrame rate                       : 25.000 fps\nStandard                         : NTSC\nColor space                      : YUV\nChroma subsampling               : 4:2:0\nBit depth                        : 8 bits\nScan type                        : Interlaced\nScan order                       : Top Field First\nBits/(Pixel*Frame)               : 0.288\nStream size                      : 872 MiB (85%)\n\nAudio\nID                               : 128 (0x80)\nFormat                           : AC-3\nFormat/Info                      : Audio Coding 3\nMode extension                   : CM (complete main)\nDuration                         : 40mn 55s\nBit rate mode                    : Constant\nBit rate                         : 448 Kbps\nChannel(s)                       : 6 channels\nChannel positions                : Front: L C R, Side: L R, LFE\nSampling rate                    : 48.0 KHz\nBit depth                        : 16 bits\nVideo delay                      : -80ms\nStream size                      : 131 MiB (13%)\n\n*****************************************\nBrought to you by 2Lions Team\n******************************************","torrent":{"xt":"urn:btih:d4e677d3096ac4f60a39f2b826344e864c3651f8","amp;dn":"Farscape+Season+3+DVD+1+%28RETAIL%29+RHoek+2Lions-Team","amp;tr":["udp%3A%2F%2Ftracker.openbittorrent.com%3A80","udp%3A%2F%2Fopen.demonii.com%3A1337","udp%3A%2F%2Ftracker.coppersurfer.tk%3A6969","udp%3A%2F%2Fexodus.desync.com%3A6969"],"infoHash":"d4e677d3096ac4f60a39f2b826344e864c3651f8","infoHashBuffer":{"type":"Buffer","data":[212,230,119,211,9,106,196,246,10,57,242,184,38,52,78,134,76,54,81,248]},"announce":[],"urlList":[]}}